<?xml version="1.0" encoding="iso-8859-1"?>

<!DOCTYPE svg PUBLIC "-//W3C//DTD SVG 1.1//EN" "http://www.w3.org/Graphics/SVG/1.1/DTD/svg11.dtd">
<!-- Uploaded to: SVG Repo, www.svgrepo.com, Generator: SVG Repo Mixer Tools -->
<svg height="800px" width="800px" version="1.1" id="_x34_" xmlns="http://www.w3.org/2000/svg" xmlns:xlink="http://www.w3.org/1999/xlink" 
	 viewBox="0 0 512 512"  xml:space="preserve">
<g>
	<g>
		<path style="fill:#C3DFD0;" d="M372.08,141.725v235.935c0,62.369-40.211,115.465-95.933,134.339h-89.614
			c-55.722-18.875-95.933-71.97-95.933-134.339v-70.575c8.124,2.298,16.905,3.529,26.014,3.529c10.258,0,20.024-1.559,29.051-4.432
			v71.478c0,47.761,38.406,86.578,85.675,86.578s85.675-38.816,85.675-86.578V141.725c0-2.216-0.082-4.431-0.246-6.647
			c-0.082-0.657-0.082-1.395-0.164-2.052c-0.082-0.657-0.164-1.231-0.246-1.805v-0.492c-0.082-0.492-0.164-0.985-0.246-1.478
			c0-0.246-0.082-0.492-0.082-0.738c-0.082-0.41-0.164-0.903-0.246-1.313c0-0.246-0.082-0.492-0.082-0.738
			c0-0.082,0-0.164-0.082-0.164c-0.082-0.492-0.164-0.985-0.246-1.477c-0.164-0.657-0.246-1.395-0.41-2.052
			c-0.164-0.492-0.246-1.067-0.411-1.641c-0.082-0.328-0.164-0.656-0.246-0.985c-0.164-0.738-0.328-1.395-0.574-2.134
			c0-0.164-0.082-0.328-0.164-0.492c0-0.164-0.082-0.328-0.082-0.492c-0.082-0.328-0.164-0.575-0.329-0.903
			c-0.082-0.41-0.164-0.82-0.328-1.231c-0.164-0.492-0.329-0.985-0.492-1.477c-0.082-0.246-0.164-0.492-0.246-0.738
			c-0.164-0.492-0.41-0.985-0.574-1.396c-0.082-0.41-0.246-0.903-0.41-1.313c-0.082-0.082-0.082-0.082-0.082-0.164
			c-0.164-0.246-0.246-0.492-0.328-0.82c-0.164-0.328-0.247-0.657-0.41-0.985c-0.164-0.246-0.246-0.575-0.41-0.903
			c-0.164-0.329-0.329-0.657-0.411-0.985c-0.082-0.082-0.082-0.164-0.082-0.164c-0.164-0.246-0.246-0.574-0.411-0.821
			c-0.164-0.328-0.328-0.738-0.492-1.066c-0.164-0.329-0.246-0.575-0.41-0.821c-0.082-0.328-0.246-0.575-0.41-0.903
			c-0.164-0.246-0.246-0.492-0.41-0.739c0-0.082-0.082-0.164-0.082-0.164c-0.246-0.411-0.41-0.821-0.657-1.231
			c-0.246-0.492-0.575-0.985-0.82-1.477c-0.082-0.246-0.247-0.41-0.329-0.575c-0.246-0.492-0.492-0.903-0.738-1.313
			c-0.082,0-0.082-0.082-0.082-0.082c-0.328-0.575-0.657-1.149-1.067-1.724c-0.164-0.246-0.328-0.575-0.492-0.82
			c-0.246-0.329-0.41-0.574-0.574-0.821v-0.082c-0.41-0.493-0.738-0.985-1.067-1.478c-0.082-0.082-0.082-0.164-0.164-0.246
			c-0.164-0.246-0.411-0.575-0.574-0.821c-0.246-0.246-0.411-0.574-0.657-0.82c0-0.082-0.082-0.164-0.082-0.246
			c-0.328-0.328-0.574-0.657-0.82-0.985c0-0.082-0.082-0.082-0.082-0.164c-0.082,0-0.082-0.082-0.164-0.164c0,0,0-0.082-0.082-0.082
			c-0.328-0.492-0.656-0.903-0.985-1.313l-1.231-1.477c-0.411-0.41-0.739-0.821-1.067-1.231c-0.164-0.164-0.329-0.41-0.492-0.574
			c-0.082-0.082-0.164-0.164-0.164-0.164c-0.328-0.329-0.657-0.657-0.903-0.985c-0.492-0.492-0.903-0.985-1.395-1.477
			c-0.493-0.492-0.903-0.903-1.396-1.395l-1.395-1.395c-0.492-0.41-0.903-0.821-1.395-1.231c0,0,0-0.082-0.082-0.082
			c0,0,0,0-0.082-0.082c-0.41-0.411-0.902-0.821-1.395-1.231c-0.082,0-0.082-0.082-0.164-0.082c-0.41-0.41-0.903-0.82-1.313-1.149
			c-0.492-0.41-1.067-0.821-1.559-1.231c-0.328-0.329-0.739-0.575-1.149-0.903c-0.082-0.082-0.246-0.164-0.41-0.328
			c-0.329-0.246-0.739-0.492-1.067-0.738c-0.082-0.082-0.082-0.082-0.164-0.164c-0.164-0.082-0.246-0.164-0.328-0.246
			c-0.082,0-0.164-0.082-0.247-0.082c-0.328-0.329-0.738-0.575-1.149-0.821c-0.082-0.082-0.164-0.164-0.246-0.246
			c-0.574-0.329-1.149-0.739-1.641-1.067c-0.574-0.328-1.067-0.657-1.559-0.985c-0.082,0-0.082,0-0.164-0.082
			c-1.066-0.657-2.215-1.313-3.282-1.888c-0.657-0.328-1.231-0.656-1.887-0.985c-0.575-0.328-1.149-0.656-1.724-0.903
			c-0.082-0.082-0.164-0.082-0.246-0.082c-0.492-0.328-0.985-0.492-1.477-0.738c-0.41-0.247-0.903-0.41-1.313-0.575c0,0,0,0,0-0.082
			c-0.329-0.082-0.657-0.246-0.985-0.328c-0.492-0.246-1.067-0.492-1.641-0.739c-0.082-0.082-0.164-0.082-0.246-0.082
			c-0.492-0.246-0.903-0.41-1.395-0.575h-0.082c-0.492-0.246-0.985-0.41-1.477-0.574c-0.246-0.082-0.41-0.164-0.575-0.164
			c-0.164-0.082-0.328-0.164-0.41-0.164c-0.41-0.164-0.82-0.246-1.231-0.41c-0.574-0.164-1.067-0.328-1.641-0.492
			c-0.164-0.082-0.329-0.164-0.574-0.164c-0.575-0.164-1.067-0.328-1.641-0.492c-0.575-0.164-1.149-0.328-1.723-0.492
			c-0.164,0-0.328-0.082-0.41-0.082c-0.492-0.082-0.985-0.246-1.477-0.328c-0.246-0.082-0.41-0.082-0.574-0.164
			c-0.492-0.082-0.985-0.164-1.477-0.328h-0.246c-0.164,0-0.246-0.082-0.329-0.082c-0.492-0.082-1.067-0.164-1.559-0.246
			c-0.082-0.082-0.164-0.082-0.246-0.082c-0.575-0.082-1.231-0.164-1.888-0.329h-0.082c-0.657-0.082-1.313-0.164-1.97-0.246h-0.082
			c-0.492-0.082-1.067-0.164-1.559-0.164c-0.492-0.082-0.903-0.082-1.313-0.082c-0.246-0.082-0.41-0.082-0.575-0.082
			c-0.082,0-0.246-0.082-0.328-0.082h-0.903c-0.082-0.082-0.082-0.082-0.164-0.082c-0.41,0-0.821,0-1.313-0.082h-2.052
			c-0.739-0.082-1.395-0.082-2.134-0.082c-29.872,0-56.132,15.51-71.478,38.981c-1.477,2.216-2.79,4.513-4.021,6.812
			c-1.313,2.462-2.462,4.924-3.529,7.385c-0.985,2.462-1.888,5.006-2.708,7.632c-0.328,0.903-0.575,1.887-0.821,2.872
			c-0.246,0.657-0.411,1.395-0.574,2.052c-1.231,4.924-1.969,10.012-2.38,15.182v1.067H90.681v-0.82
			C93.553,60.646,155.594,0,231.34,0c2.134,0,4.267,0.082,6.401,0.164c1.395,0.082,2.708,0.082,4.021,0.246
			c3.201,0.246,6.319,0.575,9.438,1.067c1.313,0.082,2.544,0.328,3.857,0.574c1.888,0.329,3.775,0.657,5.663,1.067
			c1.97,0.411,3.857,0.903,5.745,1.395c2.298,0.575,4.513,1.231,6.811,1.887c1.887,0.657,3.775,1.231,5.663,1.969
			c3.118,1.067,6.073,2.298,9.027,3.693c1.477,0.575,2.955,1.231,4.35,1.97c2.052,0.985,4.103,2.052,6.073,3.118
			c1.97,1.067,3.939,2.216,5.908,3.447c1.888,1.149,3.857,2.38,5.663,3.693c1.806,1.231,3.611,2.462,5.417,3.857
			c0.082,0,0.164,0.082,0.328,0.164c1.723,1.396,3.447,2.708,5.088,4.103c5.252,4.35,10.176,9.027,14.69,14.115
			c1.477,1.641,2.954,3.364,4.349,5.006c0.082,0.082,0.164,0.246,0.247,0.328c1.395,1.723,2.708,3.447,4.021,5.17
			c1.313,1.806,2.626,3.611,3.939,5.499c1.231,1.887,2.462,3.857,3.611,5.744c1.067,1.723,2.052,3.447,3.036,5.252
			c4.35,7.878,7.961,16.249,10.668,25.03c0.575,1.724,1.067,3.447,1.559,5.252c0.492,1.641,0.903,3.283,1.313,5.006
			c0.164,0.657,0.328,1.395,0.492,2.052c0.328,1.723,0.657,3.365,0.985,5.088c0.328,1.641,0.657,3.283,0.82,4.924
			c0.329,2.134,0.657,4.267,0.821,6.401c0.164,1.477,0.328,2.955,0.328,4.432c0.164,1.148,0.246,2.298,0.246,3.447
			C371.998,137.376,372.08,139.51,372.08,141.725z"/>
		<path style="opacity:0.2;fill:#5D5D5D;" d="M145.83,136.358c-0.014,0.22-0.028,0.447-0.041,0.675H90.67
			c0.007-0.268,0.021-0.537,0.034-0.806c1.294-3.869,13.136-6.905,27.545-6.905c14.526,0,26.443,3.084,27.573,7.001
			C145.823,136.337,145.83,136.344,145.83,136.358z"/>
	</g>
	<path style="fill:#EAD66C;" d="M462.679,201.632l-0.329,6.976l-13.294,283.778c0,10.832-8.781,19.613-19.695,19.613H33.318
		c-10.915,0-19.696-8.781-19.696-19.613l-0.164-3.282L4.185,290.098L0,201.632c0-10.832,8.781-19.613,19.614-19.613h423.452
		C453.898,182.019,462.679,190.8,462.679,201.632z"/>
	<path style="fill:#5B5743;" d="M293.481,316.501c0-34.319-27.821-62.141-62.141-62.141s-62.141,27.821-62.141,62.141
		c0,26.26,16.29,48.716,39.315,57.814c-9.154,27.688-22.094,65.646-22.094,65.646h42.338h5.163h42.338
		c0,0-12.94-37.958-22.094-65.646C277.191,365.217,293.481,342.762,293.481,316.501z"/>
	<path style="fill:none;" d="M462.679,201.632l-0.329,6.976l-13.294,283.778c0,10.832-8.781,19.613-19.695,19.613H33.318
		c-10.915,0-19.696-8.781-19.696-19.613l-0.164-3.282L4.185,290.098L0,201.632c0-10.832,8.781-19.613,19.614-19.613H231.34v23.224
		h85.675v-63.518c0-2.216-0.082-4.431-0.246-6.647c-0.082-0.657-0.082-1.395-0.164-2.052c-0.082-0.657-0.164-1.231-0.246-1.805
		v-0.492c-0.082-0.492-0.164-0.985-0.246-1.478c0-0.246-0.082-0.492-0.082-0.738c-0.082-0.41-0.164-0.903-0.246-1.313
		c0-0.246-0.082-0.492-0.082-0.738c0-0.082,0-0.164-0.082-0.164c-0.082-0.492-0.164-0.985-0.246-1.477
		c-0.164-0.657-0.246-1.395-0.41-2.052c-0.164-0.492-0.246-1.067-0.411-1.641c-0.082-0.328-0.164-0.656-0.246-0.985
		c-0.164-0.738-0.328-1.395-0.574-2.134c0-0.164-0.082-0.328-0.164-0.492c0-0.164-0.082-0.328-0.082-0.492
		c-0.082-0.328-0.164-0.575-0.329-0.903c-0.082-0.41-0.164-0.82-0.328-1.231c-0.164-0.492-0.329-0.985-0.492-1.477
		c-0.082-0.246-0.164-0.492-0.246-0.738c-0.164-0.492-0.41-0.985-0.574-1.396c-0.082-0.41-0.246-0.903-0.41-1.313
		c-0.082-0.082-0.082-0.082-0.082-0.164c-0.164-0.246-0.246-0.492-0.328-0.82c-0.164-0.328-0.247-0.657-0.41-0.985
		c-0.164-0.246-0.246-0.575-0.41-0.903c-0.164-0.329-0.329-0.657-0.411-0.985c-0.082-0.082-0.082-0.164-0.082-0.164
		c-0.164-0.246-0.246-0.574-0.411-0.821c-0.164-0.328-0.328-0.738-0.492-1.066c-0.164-0.329-0.246-0.575-0.41-0.821
		c-0.082-0.328-0.246-0.575-0.41-0.903c-0.164-0.246-0.246-0.492-0.41-0.739c0-0.082-0.082-0.164-0.082-0.164
		c-0.246-0.411-0.41-0.821-0.657-1.231c-0.246-0.492-0.575-0.985-0.82-1.477c-0.082-0.246-0.247-0.41-0.329-0.575
		c-0.246-0.492-0.492-0.903-0.738-1.313c-0.082,0-0.082-0.082-0.082-0.082c-0.328-0.575-0.657-1.149-1.067-1.724
		c-0.164-0.246-0.328-0.575-0.492-0.82c-0.246-0.329-0.41-0.574-0.574-0.821v-0.082c-0.41-0.493-0.738-0.985-1.067-1.478
		c-0.082-0.082-0.082-0.164-0.164-0.246c-0.164-0.246-0.411-0.575-0.574-0.821c-0.246-0.246-0.411-0.574-0.657-0.82
		c0-0.082-0.082-0.164-0.082-0.246c-0.328-0.328-0.574-0.657-0.82-0.985c0-0.082-0.082-0.082-0.082-0.164
		c-0.082,0-0.082-0.082-0.164-0.164c0,0,0-0.082-0.082-0.082c-0.328-0.492-0.656-0.903-0.985-1.313l-1.231-1.477
		c-0.411-0.41-0.739-0.821-1.067-1.231c-0.164-0.164-0.329-0.41-0.492-0.574c-0.082-0.082-0.164-0.164-0.164-0.164
		c-0.328-0.329-0.657-0.657-0.903-0.985c-0.492-0.492-0.903-0.985-1.395-1.477c-0.493-0.492-0.903-0.903-1.396-1.395l-1.395-1.395
		c-0.492-0.41-0.903-0.821-1.395-1.231c0,0,0-0.082-0.082-0.082c0,0,0,0-0.082-0.082c-0.41-0.411-0.902-0.821-1.395-1.231
		c-0.082,0-0.082-0.082-0.164-0.082c-0.41-0.41-0.903-0.82-1.313-1.149c-0.492-0.41-1.067-0.821-1.559-1.231
		c-0.328-0.329-0.739-0.575-1.149-0.903c-0.082-0.082-0.246-0.164-0.41-0.328c-0.329-0.246-0.739-0.492-1.067-0.738
		c-0.082-0.082-0.082-0.082-0.164-0.164c-0.164-0.082-0.246-0.164-0.328-0.246c-0.082,0-0.164-0.082-0.247-0.082
		c-0.328-0.329-0.738-0.575-1.149-0.821c-0.082-0.082-0.164-0.164-0.246-0.246c-0.574-0.329-1.149-0.739-1.641-1.067
		c-0.574-0.328-1.067-0.657-1.559-0.985c-0.082,0-0.082,0-0.164-0.082c-1.066-0.657-2.215-1.313-3.282-1.888
		c-0.657-0.328-1.231-0.656-1.887-0.985c-0.575-0.328-1.149-0.656-1.724-0.903c-0.082-0.082-0.164-0.082-0.246-0.082
		c-0.492-0.328-0.985-0.492-1.477-0.738c-0.41-0.247-0.903-0.41-1.313-0.575c0,0,0,0,0-0.082c-0.329-0.082-0.657-0.246-0.985-0.328
		c-0.492-0.246-1.067-0.492-1.641-0.739c-0.082-0.082-0.164-0.082-0.246-0.082c-0.492-0.246-0.903-0.41-1.395-0.575h-0.082
		c-0.492-0.246-0.985-0.41-1.477-0.574c-0.246-0.082-0.41-0.164-0.575-0.164c-0.164-0.082-0.328-0.164-0.41-0.164
		c-0.41-0.164-0.82-0.246-1.231-0.41c-0.574-0.164-1.067-0.328-1.641-0.492c-0.164-0.082-0.329-0.164-0.574-0.164
		c-0.575-0.164-1.067-0.328-1.641-0.492c-0.575-0.164-1.149-0.328-1.723-0.492c-0.164,0-0.328-0.082-0.41-0.082
		c-0.492-0.082-0.985-0.246-1.477-0.328c-0.246-0.082-0.41-0.082-0.574-0.164c-0.492-0.082-0.985-0.164-1.477-0.328h-0.246
		c-0.164,0-0.246-0.082-0.329-0.082c-0.492-0.082-1.067-0.164-1.559-0.246c-0.082-0.082-0.164-0.082-0.246-0.082
		c-0.575-0.082-1.231-0.164-1.888-0.329h-0.082c-0.657-0.082-1.313-0.164-1.97-0.246h-0.082c-0.492-0.082-1.067-0.164-1.559-0.164
		c-0.492-0.082-0.903-0.082-1.313-0.082c-0.246-0.082-0.41-0.082-0.575-0.082c-0.082,0-0.246-0.082-0.328-0.082h-0.903
		c-0.082-0.082-0.082-0.082-0.164-0.082c-0.41,0-0.821,0-1.313-0.082h-2.052c-0.739-0.082-1.395-0.082-2.134-0.082
		c-29.872,0-56.132,15.51-71.478,38.981c-1.477,2.216-2.79,4.513-4.021,6.812c-1.313,2.462-2.462,4.924-3.529,7.385
		c-0.985,2.462-1.888,5.006-2.708,7.632c-0.246,0.903-0.575,1.887-0.821,2.872c-0.246,0.657-0.411,1.395-0.574,2.052
		c-1.231,4.924-1.969,10.012-2.38,15.182v1.067H90.681v-0.82C93.553,60.646,155.594,0,231.34,0c2.134,0,4.267,0.082,6.401,0.164
		c1.395,0.082,2.708,0.082,4.021,0.246c3.201,0.246,6.319,0.575,9.438,1.067c1.313,0.082,2.544,0.328,3.857,0.574
		c1.888,0.329,3.775,0.657,5.663,1.067c1.97,0.411,3.857,0.903,5.745,1.395c2.298,0.575,4.513,1.231,6.811,1.887
		c1.887,0.657,3.775,1.231,5.663,1.969c3.118,1.067,6.073,2.298,9.027,3.693c1.477,0.575,2.955,1.231,4.35,1.97
		c2.052,0.985,4.103,2.052,6.073,3.118c1.97,1.067,3.939,2.216,5.908,3.447c1.888,1.149,3.857,2.38,5.663,3.693
		c1.806,1.231,3.611,2.462,5.417,3.857c0.082,0,0.164,0.082,0.328,0.164c1.723,1.396,3.447,2.708,5.088,4.103
		c5.252,4.35,10.176,9.027,14.69,14.115c1.477,1.641,2.954,3.364,4.349,5.006c0.082,0.082,0.164,0.246,0.247,0.328
		c1.395,1.723,2.708,3.447,4.021,5.17c1.313,1.806,2.626,3.611,3.939,5.499c1.231,1.887,2.462,3.857,3.611,5.744
		c1.067,1.723,2.052,3.447,3.036,5.252c4.35,7.878,7.961,16.249,10.668,25.03c0.575,1.724,1.067,3.447,1.559,5.252
		c0.492,1.641,0.903,3.283,1.313,5.006c0.164,0.657,0.328,1.395,0.492,2.052c0.328,1.723,0.657,3.365,0.985,5.088
		c0.328,1.641,0.657,3.283,0.82,4.924c0.329,2.134,0.657,4.267,0.821,6.401c0.164,1.477,0.328,2.955,0.328,4.432
		c0.164,1.148,0.246,2.298,0.246,3.447c0.082,2.216,0.164,4.349,0.164,6.565v40.294h70.986
		C453.898,182.019,462.679,190.8,462.679,201.632z"/>
	<path style="fill:none;" d="M238.807,55.476l-7.468,7.468v-7.878c0.738,0,1.395,0,2.134,0.082h2.052
		c0.492,0.082,0.903,0.082,1.313,0.082c0.082,0,0.082,0,0.164,0.082h0.903c0.082,0,0.246,0.082,0.328,0.082
		C238.397,55.394,238.561,55.394,238.807,55.476z"/>
	<path style="opacity:0.08;fill:#040000;" d="M462.679,201.632l-0.329,6.976l-13.294,283.778c0,10.832-8.781,19.613-19.695,19.613
		H231.34V182.019h85.675v-40.294c0-2.216-0.082-4.431-0.246-6.647c-0.082-0.657-0.082-1.395-0.164-2.052
		c-0.082-0.657-0.164-1.231-0.246-1.805v-0.492c-0.082-0.492-0.164-0.985-0.246-1.478c0-0.246-0.082-0.492-0.082-0.738
		c-0.082-0.41-0.164-0.903-0.246-1.313c0-0.246-0.082-0.492-0.082-0.738c0-0.082,0-0.164-0.082-0.164
		c-0.082-0.492-0.164-0.985-0.246-1.477c-0.164-0.657-0.246-1.395-0.41-2.052c-0.164-0.492-0.246-1.067-0.411-1.641
		c-0.082-0.328-0.164-0.656-0.246-0.985c-0.164-0.738-0.328-1.395-0.574-2.134c0-0.164-0.082-0.328-0.164-0.492
		c0-0.164-0.082-0.328-0.082-0.492c-0.082-0.328-0.164-0.575-0.329-0.903c-0.082-0.41-0.164-0.82-0.328-1.231
		c-0.164-0.492-0.329-0.985-0.492-1.477c-0.082-0.246-0.164-0.492-0.246-0.738c-0.164-0.492-0.41-0.985-0.574-1.396
		c-0.082-0.41-0.246-0.903-0.41-1.313c-0.082-0.082-0.082-0.082-0.082-0.164c-0.164-0.246-0.246-0.492-0.328-0.82
		c-0.164-0.328-0.247-0.657-0.41-0.985c-0.164-0.246-0.246-0.575-0.41-0.903c-0.164-0.329-0.329-0.657-0.411-0.985
		c-0.082-0.082-0.082-0.164-0.082-0.164c-0.164-0.246-0.246-0.574-0.411-0.821c-0.164-0.328-0.328-0.738-0.492-1.066
		c-0.164-0.329-0.246-0.575-0.41-0.821c-0.082-0.328-0.246-0.575-0.41-0.903c-0.164-0.246-0.246-0.492-0.41-0.739
		c0-0.082-0.082-0.164-0.082-0.164c-0.246-0.411-0.41-0.821-0.657-1.231c-0.246-0.492-0.575-0.985-0.82-1.477
		c-0.082-0.246-0.247-0.41-0.329-0.575c-0.246-0.492-0.492-0.903-0.738-1.313c-0.082,0-0.082-0.082-0.082-0.082
		c-0.328-0.575-0.657-1.149-1.067-1.724c-0.164-0.246-0.328-0.575-0.492-0.82c-0.246-0.329-0.41-0.574-0.574-0.821v-0.082
		c-0.41-0.493-0.738-0.985-1.067-1.478c-0.082-0.082-0.082-0.164-0.164-0.246c-0.164-0.246-0.411-0.575-0.574-0.821
		c-0.246-0.246-0.411-0.574-0.657-0.82c0-0.082-0.082-0.164-0.082-0.246c-0.328-0.328-0.574-0.657-0.82-0.985
		c0-0.082-0.082-0.082-0.082-0.164c-0.082,0-0.082-0.082-0.164-0.164c0,0,0-0.082-0.082-0.082c-0.328-0.492-0.656-0.903-0.985-1.313
		l-1.231-1.477c-0.411-0.41-0.739-0.821-1.067-1.231c-0.164-0.164-0.329-0.41-0.492-0.574c-0.082-0.082-0.164-0.164-0.164-0.164
		c-0.328-0.329-0.657-0.657-0.903-0.985c-0.492-0.492-0.903-0.985-1.395-1.477c-0.493-0.492-0.903-0.903-1.396-1.395l-1.395-1.395
		c-0.492-0.41-0.903-0.821-1.395-1.231c0,0,0-0.082-0.082-0.082c0,0,0,0-0.082-0.082c-0.41-0.411-0.902-0.821-1.395-1.231
		c-0.082,0-0.082-0.082-0.164-0.082c-0.41-0.41-0.903-0.82-1.313-1.149c-0.492-0.41-1.067-0.821-1.559-1.231
		c-0.328-0.329-0.739-0.575-1.149-0.903c-0.082-0.082-0.246-0.164-0.41-0.328c-0.329-0.246-0.739-0.492-1.067-0.738
		c-0.082-0.082-0.082-0.082-0.164-0.164c-0.164-0.082-0.246-0.164-0.328-0.246c-0.082,0-0.164-0.082-0.247-0.082
		c-0.328-0.329-0.738-0.575-1.149-0.821c-0.082-0.082-0.164-0.164-0.246-0.246c-0.574-0.329-1.149-0.739-1.641-1.067
		c-0.574-0.328-1.067-0.657-1.559-0.985c-0.082,0-0.082,0-0.164-0.082c-1.066-0.657-2.215-1.313-3.282-1.888
		c-0.657-0.328-1.231-0.656-1.887-0.985c-0.575-0.328-1.149-0.656-1.724-0.903c-0.082-0.082-0.164-0.082-0.246-0.082
		c-0.492-0.328-0.985-0.492-1.477-0.738c-0.41-0.247-0.903-0.41-1.313-0.575c0,0,0,0,0-0.082c-0.329-0.082-0.657-0.246-0.985-0.328
		c-0.492-0.246-1.067-0.492-1.641-0.739c-0.082-0.082-0.164-0.082-0.246-0.082c-0.492-0.246-0.903-0.41-1.395-0.575h-0.082
		c-0.492-0.246-0.985-0.41-1.477-0.574c-0.246-0.082-0.41-0.164-0.575-0.164c-0.164-0.082-0.328-0.164-0.41-0.164
		c-0.41-0.164-0.82-0.246-1.231-0.41c-0.574-0.164-1.067-0.328-1.641-0.492c-0.164-0.082-0.329-0.164-0.574-0.164
		c-0.575-0.164-1.067-0.328-1.641-0.492c-0.575-0.164-1.149-0.328-1.723-0.492c-0.164,0-0.328-0.082-0.41-0.082
		c-0.492-0.082-0.985-0.246-1.477-0.328c-0.246-0.082-0.41-0.082-0.574-0.164c-0.492-0.082-0.985-0.164-1.477-0.328h-0.246
		c-0.164,0-0.246-0.082-0.329-0.082c-0.492-0.082-1.067-0.164-1.559-0.246c-0.082-0.082-0.164-0.082-0.246-0.082
		c-0.575-0.082-1.231-0.164-1.888-0.329h-0.082c-0.657-0.082-1.313-0.164-1.97-0.246h-0.082c-0.492-0.082-1.067-0.164-1.559-0.164
		c-0.492-0.082-0.903-0.082-1.313-0.082c-0.246-0.082-0.41-0.082-0.575-0.082c-0.082,0-0.246-0.082-0.328-0.082h-0.903
		c-0.082-0.082-0.082-0.082-0.164-0.082c-0.41,0-0.821,0-1.313-0.082h-2.052c-0.739-0.082-1.395-0.082-2.134-0.082V0
		c2.134,0,4.267,0.082,6.401,0.164c1.395,0.082,2.708,0.082,4.021,0.246c3.201,0.246,6.319,0.575,9.438,1.067
		c1.313,0.082,2.544,0.328,3.857,0.574c1.888,0.329,3.775,0.657,5.663,1.067c1.97,0.411,3.857,0.903,5.745,1.395
		c2.298,0.575,4.513,1.231,6.811,1.887c1.887,0.657,3.775,1.231,5.663,1.969c3.118,1.067,6.073,2.298,9.027,3.693
		c1.477,0.575,2.955,1.231,4.35,1.97c2.052,0.985,4.103,2.052,6.073,3.118c1.97,1.067,3.939,2.216,5.908,3.447
		c1.888,1.149,3.857,2.38,5.663,3.693c1.806,1.231,3.611,2.462,5.417,3.857c0.082,0,0.164,0.082,0.328,0.164
		c1.723,1.396,3.447,2.708,5.088,4.103c5.252,4.35,10.176,9.027,14.69,14.115c1.477,1.641,2.954,3.364,4.349,5.006
		c0.082,0.082,0.164,0.246,0.247,0.328c1.395,1.723,2.708,3.447,4.021,5.17c1.313,1.806,2.626,3.611,3.939,5.499
		c1.231,1.887,2.462,3.857,3.611,5.744c1.067,1.723,2.052,3.447,3.036,5.252c4.35,7.878,7.961,16.249,10.668,25.03
		c0.575,1.724,1.067,3.447,1.559,5.252c0.492,1.641,0.903,3.283,1.313,5.006c0.164,0.657,0.328,1.395,0.492,2.052
		c0.328,1.723,0.657,3.365,0.985,5.088c0.328,1.641,0.657,3.283,0.82,4.924c0.329,2.134,0.657,4.267,0.821,6.401
		c0.164,1.477,0.328,2.955,0.328,4.432c0.164,1.148,0.246,2.298,0.246,3.447c0.082,2.216,0.164,4.349,0.164,6.565v40.294h70.986
		C453.898,182.019,462.679,190.8,462.679,201.632z"/>
</g>
</svg>